<svg width="519" height="79" viewBox="0 0 519 79" fill="none" xmlns="http://www.w3.org/2000/svg">
<path d="M497.319 76.1C493.385 76.1 489.885 75.1333 486.819 73.2C483.819 71.2 481.819 68.5667 480.819 65.3L481.919 62V68.2C481.919 70.6667 481.285 72.5667 480.019 73.9C478.752 75.2333 476.919 75.9 474.519 75.9C472.119 75.9 470.252 75.2333 468.919 73.9C467.652 72.5667 467.019 70.6667 467.019 68.2V11.3C467.019 8.76667 467.652 6.86666 468.919 5.6C470.252 4.26666 472.152 3.59999 474.619 3.59999C477.019 3.59999 478.852 4.26666 480.119 5.6C481.452 6.86666 482.119 8.76667 482.119 11.3V35H480.919C481.985 32 484.019 29.5667 487.019 27.7C490.019 25.8333 493.452 24.9 497.319 24.9C501.652 24.9 505.419 25.9333 508.619 28C511.819 30.0667 514.319 33 516.119 36.8C517.919 40.6 518.819 45.1333 518.819 50.4C518.819 55.6667 517.919 60.2333 516.119 64.1C514.319 67.9667 511.785 70.9333 508.519 73C505.319 75.0667 501.585 76.1 497.319 76.1ZM492.819 64.8C494.952 64.8 496.819 64.2667 498.419 63.2C500.085 62.1333 501.352 60.5667 502.219 58.5C503.152 56.3667 503.619 53.6667 503.619 50.4C503.619 45.5333 502.619 41.9667 500.619 39.7C498.619 37.3667 496.019 36.2 492.819 36.2C490.685 36.2 488.785 36.7 487.119 37.7C485.519 38.7 484.252 40.2667 483.319 42.4C482.385 44.4667 481.919 47.1333 481.919 50.4C481.919 55.2667 482.919 58.9 484.919 61.3C486.919 63.6333 489.552 64.8 492.819 64.8Z" fill="white"/>
<path d="M427.955 76.1C424.355 76.1 421.121 75.4 418.255 74C415.388 72.6 413.155 70.7 411.555 68.3C409.955 65.9 409.155 63.2 409.155 60.2C409.155 56.6 410.088 53.7667 411.955 51.7C413.821 49.5667 416.855 48.0667 421.055 47.2C425.255 46.2667 430.821 45.8 437.755 45.8H443.055V53.6H437.855C434.455 53.6 431.688 53.8 429.555 54.2C427.488 54.5333 425.988 55.1333 425.055 56C424.188 56.8667 423.755 58.0667 423.755 59.6C423.755 61.4667 424.388 63 425.655 64.2C426.988 65.4 428.888 66 431.355 66C433.288 66 434.988 65.5667 436.455 64.7C437.988 63.7667 439.188 62.5333 440.055 61C440.921 59.4 441.355 57.6 441.355 55.6V44.1C441.355 41.1667 440.688 39.1 439.355 37.9C438.021 36.6333 435.755 36 432.555 36C430.755 36 428.788 36.2333 426.655 36.7C424.588 37.1 422.288 37.8 419.755 38.8C418.288 39.4667 416.988 39.6333 415.855 39.3C414.721 38.9 413.855 38.2333 413.255 37.3C412.655 36.3 412.355 35.2333 412.355 34.1C412.355 32.9 412.688 31.7667 413.355 30.7C414.021 29.5667 415.121 28.7333 416.655 28.2C419.788 26.9333 422.721 26.0667 425.455 25.6C428.255 25.1333 430.821 24.9 433.155 24.9C438.288 24.9 442.488 25.6667 445.755 27.2C449.088 28.6667 451.588 30.9667 453.255 34.1C454.921 37.1667 455.755 41.1333 455.755 46V68.2C455.755 70.6667 455.155 72.5667 453.955 73.9C452.755 75.2333 451.021 75.9 448.755 75.9C446.488 75.9 444.721 75.2333 443.455 73.9C442.255 72.5667 441.655 70.6667 441.655 68.2V64.5L442.355 65.1C441.955 67.3667 441.088 69.3333 439.755 71C438.488 72.6 436.855 73.8667 434.855 74.8C432.855 75.6667 430.555 76.1 427.955 76.1Z" fill="white"/>
<path d="M363.23 75C360.697 75 358.73 74.3 357.33 72.9C355.997 71.5 355.33 69.5667 355.33 67.1V12.2C355.33 9.59999 355.997 7.63333 357.33 6.3C358.664 4.96666 360.597 4.3 363.13 4.3C365.597 4.3 367.497 4.96666 368.83 6.3C370.164 7.63333 370.83 9.59999 370.83 12.2V61.9H397.63C399.764 61.9 401.397 62.4667 402.53 63.6C403.73 64.7333 404.33 66.3333 404.33 68.4C404.33 70.5333 403.73 72.1667 402.53 73.3C401.397 74.4333 399.764 75 397.63 75H363.23Z" fill="white"/>
<path d="M324.631 76C319.098 76 314.331 74.9667 310.331 72.9C306.331 70.8333 303.231 67.9 301.031 64.1C298.898 60.3 297.831 55.8 297.831 50.6C297.831 45.5333 298.865 41.1 300.931 37.3C303.065 33.5 305.965 30.5333 309.631 28.4C313.365 26.2 317.598 25.1 322.331 25.1C325.798 25.1 328.898 25.6667 331.631 26.8C334.431 27.9333 336.798 29.5667 338.731 31.7C340.731 33.8333 342.231 36.4333 343.231 39.5C344.298 42.5 344.831 45.9 344.831 49.7C344.831 50.9 344.398 51.8333 343.531 52.5C342.731 53.1 341.565 53.4 340.031 53.4H307.931V46.2H336.031L334.431 47.7C334.431 44.6333 333.965 42.0667 333.031 40C332.165 37.9333 330.865 36.3667 329.131 35.3C327.465 34.1667 325.365 33.6 322.831 33.6C320.031 33.6 317.631 34.2667 315.631 35.6C313.698 36.8667 312.198 38.7 311.131 41.1C310.131 43.4333 309.631 46.2333 309.631 49.5V50.2C309.631 55.6667 310.898 59.7667 313.431 62.5C316.031 65.1667 319.831 66.5 324.831 66.5C326.565 66.5 328.498 66.3 330.631 65.9C332.831 65.4333 334.898 64.6667 336.831 63.6C338.231 62.8 339.465 62.4667 340.531 62.6C341.598 62.6667 342.431 63.0333 343.031 63.7C343.698 64.3667 344.098 65.2 344.231 66.2C344.365 67.1333 344.165 68.1 343.631 69.1C343.165 70.1 342.331 70.9667 341.131 71.7C338.798 73.1667 336.098 74.2667 333.031 75C330.031 75.6667 327.231 76 324.631 76Z" fill="white"/>
<path d="M259.37 76C255.104 76 251.337 74.9667 248.07 72.9C244.87 70.8333 242.37 67.9 240.57 64.1C238.77 60.2333 237.87 55.7 237.87 50.5C237.87 45.2333 238.77 40.7333 240.57 37C242.37 33.2 244.87 30.2667 248.07 28.2C251.337 26.1333 255.104 25.1 259.37 25.1C263.437 25.1 266.97 26.1 269.97 28.1C273.037 30.1 275.104 32.7333 276.17 36H275.07V10C275.07 7.93333 275.604 6.36666 276.67 5.3C277.737 4.23333 279.27 3.69999 281.27 3.69999C283.27 3.69999 284.804 4.23333 285.87 5.3C287.004 6.36666 287.57 7.93333 287.57 10V69.4C287.57 71.4667 287.037 73.0667 285.97 74.2C284.904 75.2667 283.37 75.8 281.37 75.8C279.37 75.8 277.837 75.2667 276.77 74.2C275.704 73.0667 275.17 71.4667 275.17 69.4V61.6L276.27 64.6C275.27 68.0667 273.237 70.8333 270.17 72.9C267.104 74.9667 263.504 76 259.37 76ZM262.87 66.5C265.337 66.5 267.504 65.9 269.37 64.7C271.237 63.5 272.67 61.7333 273.67 59.4C274.737 57 275.27 54.0333 275.27 50.5C275.27 45.1667 274.137 41.2 271.87 38.6C269.604 35.9333 266.604 34.6 262.87 34.6C260.404 34.6 258.237 35.2 256.37 36.4C254.504 37.5333 253.037 39.3 251.97 41.7C250.97 44.0333 250.47 46.9667 250.47 50.5C250.47 55.7667 251.604 59.7667 253.87 62.5C256.137 65.1667 259.137 66.5 262.87 66.5Z" fill="white"/>
<path d="M205.253 76C200.186 76 195.786 74.9667 192.053 72.9C188.32 70.8333 185.42 67.9 183.353 64.1C181.286 60.2333 180.253 55.7 180.253 50.5C180.253 46.5667 180.82 43.0667 181.953 40C183.153 36.8667 184.853 34.2 187.053 32C189.253 29.7333 191.886 28.0333 194.953 26.9C198.02 25.7 201.453 25.1 205.253 25.1C210.32 25.1 214.72 26.1333 218.453 28.2C222.186 30.2667 225.086 33.2 227.153 37C229.22 40.8 230.253 45.3 230.253 50.5C230.253 54.4333 229.653 57.9667 228.453 61.1C227.32 64.2333 225.653 66.9333 223.453 69.2C221.253 71.4 218.62 73.1 215.553 74.3C212.486 75.4333 209.053 76 205.253 76ZM205.253 66.5C207.72 66.5 209.886 65.9 211.753 64.7C213.62 63.5 215.053 61.7333 216.053 59.4C217.12 57 217.653 54.0333 217.653 50.5C217.653 45.1667 216.52 41.2 214.253 38.6C211.986 35.9333 208.986 34.6 205.253 34.6C202.786 34.6 200.62 35.2 198.753 36.4C196.886 37.5333 195.42 39.3 194.353 41.7C193.353 44.0333 192.853 46.9667 192.853 50.5C192.853 55.7667 193.986 59.7667 196.253 62.5C198.52 65.1667 201.52 66.5 205.253 66.5Z" fill="white"/>
<path d="M152.5 76C145.167 76 138.867 74.5333 133.6 71.6C128.4 68.6 124.4 64.4 121.6 59C118.8 53.5333 117.4 47.1 117.4 39.7C117.4 34.1667 118.2 29.2 119.8 24.8C121.4 20.3333 123.7 16.5333 126.7 13.4C129.7 10.2 133.367 7.76666 137.7 6.1C142.1 4.36666 147.033 3.5 152.5 3.5C156.167 3.5 159.767 3.96666 163.3 4.9C166.833 5.83333 169.933 7.16666 172.6 8.9C174 9.76667 174.933 10.8333 175.4 12.1C175.867 13.3 175.967 14.5 175.7 15.7C175.433 16.8333 174.867 17.8 174 18.6C173.2 19.4 172.167 19.8667 170.9 20C169.7 20.0667 168.367 19.6333 166.9 18.7C164.833 17.3667 162.6 16.4 160.2 15.8C157.8 15.2 155.367 14.9 152.9 14.9C148.167 14.9 144.167 15.8667 140.9 17.8C137.633 19.7333 135.167 22.5333 133.5 26.2C131.833 29.8667 131 34.3667 131 39.7C131 44.9667 131.833 49.4667 133.5 53.2C135.167 56.9333 137.633 59.7667 140.9 61.7C144.167 63.6333 148.167 64.6 152.9 64.6C155.433 64.6 157.933 64.3 160.4 63.7C162.867 63.0333 165.2 62.0333 167.4 60.7C168.867 59.8333 170.167 59.4667 171.3 59.6C172.5 59.6667 173.5 60.0667 174.3 60.8C175.1 61.5333 175.633 62.4667 175.9 63.6C176.167 64.6667 176.1 65.8 175.7 67C175.3 68.1333 174.5 69.1333 173.3 70C170.633 71.9333 167.433 73.4333 163.7 74.5C160.033 75.5 156.3 76 152.5 76Z" fill="white"/>
<path fill-rule="evenodd" clip-rule="evenodd" d="M76.4092 10.8519C77.2563 10.0048 78.6299 10.0048 79.4771 10.8519L92.4932 23.868C93.3403 24.7152 93.3403 26.0888 92.4932 26.9359L79.4771 39.952C78.6299 40.7992 77.2563 40.7992 76.4092 39.952C75.562 39.1048 75.562 37.7313 76.4092 36.8841L87.8913 25.402L76.4092 13.9199C75.562 13.0727 75.562 11.6991 76.4092 10.8519Z" fill="#00BC7D"/>
<path fill-rule="evenodd" clip-rule="evenodd" d="M16.7194 10.8519C17.5666 11.6991 17.5666 13.0727 16.7194 13.9199L5.23727 25.402L16.7194 36.8841C17.5666 37.7313 17.5666 39.1048 16.7194 39.952C15.8722 40.7992 14.4987 40.7992 13.6515 39.952L0.635387 26.9359C-0.211796 26.0888 -0.211796 24.7152 0.635387 23.868L13.6515 10.8519C14.4987 10.0048 15.8722 10.0048 16.7194 10.8519Z" fill="#00BC7D"/>
<path d="M54.1242 3V24.6496C54.1236 25.8602 54.4276 27.0514 55.0082 28.1136L74.8898 64.485C75.4911 65.5841 75.796 66.8208 75.7744 68.0735C75.7528 69.3262 75.4054 70.5517 74.7664 71.6294C74.1274 72.7071 73.2189 73.5999 72.1302 74.2199C71.0415 74.8399 69.8101 75.1658 68.5572 75.1655H25.258C24.0051 75.1658 22.7737 74.8399 21.685 74.2199C20.5963 73.5999 19.6878 72.7071 19.0488 71.6294C18.4098 70.5517 18.0624 69.3262 18.0408 68.0735C18.0192 66.8208 18.3241 65.5841 18.9254 64.485L38.807 28.1136C39.3876 27.0514 39.6916 25.8602 39.6911 24.6496V3" stroke="#00BC7D" stroke-width="6" stroke-linecap="round" stroke-linejoin="round"/>
<path d="M26.8925 49.9076H66.9227" stroke="#00BC7D" stroke-width="6" stroke-linecap="round" stroke-linejoin="round"/>
<path d="M34.2786 3H59.5365" stroke="#00BC7D" stroke-width="6" stroke-linecap="round" stroke-linejoin="round"/>
</svg>
