<svg width="94" height="79" viewBox="0 0 94 79" fill="none" xmlns="http://www.w3.org/2000/svg">
<path fill-rule="evenodd" clip-rule="evenodd" d="M76.4092 10.8519C77.2563 10.0048 78.6299 10.0048 79.4771 10.8519L92.4932 23.868C93.3403 24.7152 93.3403 26.0888 92.4932 26.9359L79.4771 39.952C78.6299 40.7992 77.2563 40.7992 76.4092 39.952C75.562 39.1048 75.562 37.7313 76.4092 36.8841L87.8913 25.402L76.4092 13.9199C75.562 13.0727 75.562 11.6991 76.4092 10.8519Z" fill="#00BC7D"/>
<path fill-rule="evenodd" clip-rule="evenodd" d="M16.7194 10.8519C17.5666 11.6991 17.5666 13.0727 16.7194 13.9199L5.23727 25.402L16.7194 36.8841C17.5666 37.7313 17.5666 39.1048 16.7194 39.952C15.8722 40.7992 14.4987 40.7992 13.6515 39.952L0.635387 26.9359C-0.211796 26.0888 -0.211796 24.7152 0.635387 23.868L13.6515 10.8519C14.4987 10.0048 15.8722 10.0048 16.7194 10.8519Z" fill="#00BC7D"/>
<path d="M54.1242 3V24.6496C54.1236 25.8602 54.4276 27.0514 55.0082 28.1136L74.8898 64.485C75.4911 65.5841 75.796 66.8208 75.7744 68.0735C75.7528 69.3262 75.4054 70.5517 74.7664 71.6294C74.1274 72.7071 73.2189 73.5999 72.1302 74.2199C71.0415 74.8399 69.8101 75.1658 68.5572 75.1655H25.258C24.0051 75.1658 22.7737 74.8399 21.685 74.2199C20.5963 73.5999 19.6878 72.7071 19.0488 71.6294C18.4098 70.5517 18.0624 69.3262 18.0408 68.0735C18.0192 66.8208 18.3241 65.5841 18.9254 64.485L38.807 28.1136C39.3876 27.0514 39.6916 25.8602 39.6911 24.6496V3" stroke="#00BC7D" stroke-width="6" stroke-linecap="round" stroke-linejoin="round"/>
<path d="M26.8925 49.9076H66.9227" stroke="#00BC7D" stroke-width="6" stroke-linecap="round" stroke-linejoin="round"/>
<path d="M34.2786 3H59.5365" stroke="#00BC7D" stroke-width="6" stroke-linecap="round" stroke-linejoin="round"/>
</svg>
